<svg width="16" height="14" viewBox="0 0 16 14" fill="none" xmlns="http://www.w3.org/2000/svg">
<path fill-rule="evenodd" clip-rule="evenodd" d="M7.98641 5.34556C6.67361 5.34556 5.61041 6.41036 5.61041 7.72156C5.61041 9.03436 6.67441 10.0984 7.98641 10.0984C9.29841 10.0984 10.3632 9.03436 10.3632 7.72156C10.3632 6.41036 9.29921 5.34556 7.98641 5.34556ZM14.3232 2.96956H12.4224C12.1608 2.96956 11.8792 2.76716 11.7968 2.51916L11.3056 1.04476C11.2224 0.79676 10.9416 0.59436 10.68 0.59436H5.29361C5.03201 0.59436 4.75041 0.79676 4.66801 1.04476L4.17681 2.51916C4.09361 2.76716 3.81201 2.96956 3.55121 2.96956H1.65041C0.779206 2.96956 0.0664062 3.68236 0.0664062 4.55356V11.6824C0.0664062 12.5536 0.779206 13.2664 1.65041 13.2664H14.324C15.1952 13.2664 15.908 12.5536 15.908 11.6824V4.55356C15.908 3.68236 15.1944 2.96956 14.3232 2.96956ZM7.98641 11.6824C5.79921 11.6824 4.02641 9.90956 4.02641 7.72156C4.02641 5.53516 5.79921 3.76156 7.98641 3.76156C10.1736 3.76156 11.9472 5.53516 11.9472 7.72156C11.9472 9.90956 10.1736 11.6824 7.98641 11.6824ZM13.7688 5.66156C13.4632 5.66156 13.2152 5.41276 13.2152 5.10716C13.2152 4.80156 13.4632 4.55276 13.7688 4.55276C14.0752 4.55276 14.3232 4.80156 14.3232 5.10716C14.3232 5.41276 14.0752 5.66156 13.7688 5.66156Z" fill="white"/>
</svg>
