<svg width="13" height="16" viewBox="0 0 13 16" fill="none" xmlns="http://www.w3.org/2000/svg">
<path fill-rule="evenodd" clip-rule="evenodd" d="M4.07598 2.17114V11.5711C3.56398 11.4639 2.96878 11.5047 2.37838 11.7231C1.04958 12.2167 0.580779 13.4175 0.932779 14.4047C1.28478 15.3927 2.32478 15.7919 3.65278 15.2983C4.78078 14.8799 5.51998 13.9503 5.50158 13.0751C5.50158 13.0751 5.50158 8.09034 5.50158 5.31034L11.1256 4.02154V9.98634C10.6128 9.87994 10.0176 9.91994 9.42718 10.1391C8.09918 10.6327 7.63038 11.8335 7.98238 12.8207C8.33358 13.8087 9.37358 14.2079 10.7016 13.7151C11.8304 13.2959 12.5688 12.3663 12.5512 11.4919V0.350342L4.07598 2.17114Z" fill="white"/>
</svg>
